PathFileType	4	(X/Y/Z)	C249e_D251_DD_1_S001_6.trc
DataRate	CameraRate	NumFrames	NumMarkers	Units	OrigDataRate	OrigDataStartFrame	OrigNumFrames
50.0	50.0	4	54	mm	50.0	138	274
Frame#	Time		Q_WaistRFront		Q_WaistLFront		Q_WaistL		Q_WaistR		Q_WaistBack		Q_LThighFrontLow		Q_RThighFrontLow		Q_RKneeIn		Q_RKneeOut		Q_RShinFrontHigh		Q_LKneeIn		Q_LKneeOut		Q_LShinFrontHigh		Q_RForefoot5		Q_RForefoot2		Q_RHeelBack		Q_RAnkleOut		Q_LForefoot5		Q_LForefoot2		Q_LHeelBack		Q_LAnkleOut		Q_SpineThoracic2		Q_Chest		Q_SpineThoracic12		Q_HeadL		Q_HeadR		Q_HeadFront		Q_LShoulderTop		Q_LArm		Q_LElbowOut		Q_LElbowIn		Q_LWristOut		Q_LWristIn		Q_LHand2		Q_RShoulderTop		Q_RArm		Q_RElbowOut		Q_RElbowIn		Q_RWristOut		Q_RWristIn		Q_RHand2		RHipAngles		LHipAngles		RKneeAngles		LKneeAngles		RAnkleAngles		LAnkleAngles		RShoulderAngles		LShoulderAngles		RElbowAngles		LElbowAngles		RWristAngles		LWristAngles		Neck
			X1	Y1	Z1	X2	Y2	Z2	X3	Y3	Z3	X4	Y4	Z4	X5	Y5	Z5	X6	Y6	Z6	X7	Y7	Z7	X8	Y8	Z8	X9	Y9	Z9	X10	Y10	Z10	X11	Y11	Z11	X12	Y12	Z12	X13	Y13	Z13	X14	Y14	Z14	X15	Y15	Z15	X16	Y16	Z16	X17	Y17	Z17	X18	Y18	Z18	X19	Y19	Z19	X20	Y20	Z20	X21	Y21	Z21	X22	Y22	Z22	X23	Y23	Z23	X24	Y24	Z24	X25	Y25	Z25	X26	Y26	Z26	X27	Y27	Z27	X28	Y28	Z28	X29	Y29	Z29	X30	Y30	Z30	X31	Y31	Z31	X32	Y32	Z32	X33	Y33	Z33	X34	Y34	Z34	X35	Y35	Z35	X36	Y36	Z36	X37	Y37	Z37	X38	Y38	Z38	X39	Y39	Z39	X40	Y40	Z40	X41	Y41	Z41	X42	Y42	Z42	X43	Y43	Z43	X44	Y44	Z44	X45	Y45	Z45	X46	Y46	Z46	X47	Y47	Z47	X48	Y48	Z48	X49	Y49	Z49	X50	Y50	Z50	X51	Y51	Z51	X52	Y52	Z52	X53	Y53	Z53	X54	Y54	Z54

138	2.74000	126.28473	474.65436	333.35165	-130.16597	472.97815	329.17838	-131.21687	522.18280	373.99423	125.23381	523.85901	378.16754	-2.99154	523.02094	376.08090	-181.14946	412.19257	134.77971	189.98799	411.91486	143.12932	161.27979	378.89990	84.77253	292.60480	404.18042	126.18074	248.40460	198.06190	155.53188	-147.36153	380.67834	77.93503	-281.87335	399.27716	112.00355	-227.98535	196.51086	147.80724	327.29996	36.06051	143.75114	278.61847	43.85738	135.42516	252.44720	30.23360	275.68903	310.15326	60.09840	268.91922	-296.76538	35.41146	133.60980	-248.08406	45.51756	128.31865	-229.53735	30.15455	269.61441	-288.04254	57.58070	259.98749	-7.66774	911.63953	151.90793	2.40687	304.70178	336.81830	-7.66774	911.63953	151.90793	-80.91580	999.18768	11.95004	59.08066	1000.11377	12.31621	-10.62587	982.37653	-55.70134	-132.04654	877.81812	65.41948	-269.58585	875.96210	10.41609	-320.06415	952.70172	-42.59288	-293.97821	877.51630	-103.14595	-279.62061	1050.68665	-255.02252	-233.32567	1051.55237	-236.15376	-191.48573	1119.45227	-280.89941	112.88083	875.63898	53.26213	242.95161	872.16840	-16.81214	291.41220	949.17047	-71.30283	252.79128	879.97137	-132.29385	230.17606	1063.79163	-269.98654	186.88846	1065.98010	-245.05875	145.74475	1144.33496	-269.59222	-120.72403	19.64558	-8.58736	-122.96742	18.01011	-4.85196	-94.45748	-4.14822	-1.30969	-96.75492	-1.08627	-1.53970	-24.21155	-6.00603	-20.08312	-26.53673	-6.02548	-20.08363	-22.40704	98.77193	-52.81459	21.72076	-91.15856	-50.94175	-53.34655	-91.15856	40.17686	-53.15569	-0.00000	40.17686	26.45746	8.76539	40.17686	22.38155	8.82889	-0.00000	-0.00000	-1.36371	2.43516
139	2.76000	126.69289	475.35736	333.30957	-129.76346	473.84610	329.43167	-130.73138	523.02362	374.27914	125.72495	524.53491	378.15704	-2.50322	523.77924	376.21808	-181.22993	412.23615	135.27715	190.15913	412.13544	143.07704	161.36066	379.15491	84.66127	292.71344	404.13934	126.16090	248.06624	198.09769	155.37491	-147.53081	380.51733	78.52680	-282.00323	399.28552	112.65756	-228.30692	196.49283	148.59962	326.67853	35.72179	143.64041	278.02686	43.63566	135.25073	251.66058	30.22505	275.49863	309.45126	59.93374	268.76389	-297.22061	36.03384	134.40227	-248.51762	46.05482	129.14867	-230.01256	30.16619	270.39178	-288.45880	57.74935	260.85602	-7.42839	912.37476	152.19281	2.89996	305.41235	337.00812	-7.42839	912.37476	152.19281	-80.87083	999.47516	11.41590	59.11061	1001.00439	13.10685	-9.87052	982.76880	-55.51579	-132.03949	878.25745	65.53072	-269.39954	876.37946	10.25556	-319.89822	953.17877	-42.64742	-293.49228	878.23883	-103.36582	-279.12363	1051.91077	-254.66751	-232.87932	1052.81885	-235.67699	-190.77588	1120.02246	-280.79251	113.01838	876.15399	53.06363	243.26880	872.05072	-17.21461	292.17346	948.80280	-71.66120	253.01440	879.94733	-132.69794	230.30168	1064.32812	-269.62308	187.14929	1066.56958	-244.46666	145.59294	1144.96716	-266.84848	-120.64272	19.63756	-8.50365	-122.79240	18.04561	-4.76934	-94.40328	-4.18977	-1.22162	-96.63097	-0.99301	-1.58169	-24.11271	-5.99169	-20.08153	-26.79217	-6.02803	-20.08457	-22.46413	99.02361	-52.58895	21.73860	-91.48616	-51.10714	-53.66288	-91.48616	41.00324	-53.14231	-0.00000	41.00324	27.60624	8.87866	41.00324	22.02791	9.23523	-0.00000	-0.00000	-1.29263	2.69551
140	2.78000	127.53176	475.86813	333.38898	-128.93544	474.49979	330.24808	-129.74791	523.57605	375.20944	126.71929	524.94440	378.35034	-1.51431	524.26025	376.77991	-181.32021	412.58023	136.32857	191.01180	412.48547	143.13847	162.19603	379.57593	84.49818	293.46967	404.34149	126.37757	248.47397	198.32645	155.24229	-147.88864	380.70883	79.36279	-282.13919	399.74039	114.21372	-228.78114	196.72939	149.41969	326.88031	36.48494	143.35359	278.24460	44.43733	134.90811	251.59164	30.23507	275.02383	309.39056	59.99113	268.57523	-298.23627	36.13508	135.32135	-249.54402	46.05723	129.78816	-230.26819	30.17055	270.92841	-288.71246	57.86786	261.71704	-7.06990	913.22314	153.56377	3.81142	305.92096	337.22766	-7.06990	913.22314	153.56377	-80.56792	1000.87488	13.41279	59.42916	1001.60370	13.94340	-10.22162	983.79346	-54.11219	-131.93155	879.26044	67.28648	-268.95947	876.96155	11.63109	-319.55115	953.61542	-41.39386	-292.66754	878.81219	-102.07131	-278.54636	1052.61694	-253.24380	-232.36223	1053.69983	-234.11656	-190.36411	1120.96216	-279.17130	113.01244	877.09344	53.72979	243.07397	872.71069	-17.18377	291.94208	949.36835	-71.79599	252.33173	880.65704	-132.70384	230.22702	1065.04541	-269.71811	187.13637	1067.51172	-244.47704	145.42001	1145.57898	-266.83630	-120.53432	19.74649	-8.40884	-122.64788	18.10427	-4.70440	-94.42047	-4.22822	-1.03854	-96.46121	-0.90033	-1.46743	-24.38589	-5.97832	-20.07647	-26.63667	-6.01202	-20.07640	-22.59306	99.12621	-52.53844	22.01583	-91.78801	-51.27063	-53.46138	-91.78801	41.83685	-53.09974	-0.00000	41.83685	27.82828	8.94021	41.83685	21.77387	9.48990	-0.00000	-0.00000	-1.57352	2.56805
141	2.80000	128.11694	476.72601	333.34085	-128.35498	475.22739	330.67810	-129.10938	524.15308	375.80426	127.36254	525.65173	378.46698	-0.87341	524.90240	377.13562	-180.77748	413.24780	136.67012	191.17671	412.59198	142.96468	162.20268	379.66055	84.40767	293.58752	404.28049	126.02357	248.45897	198.29245	154.87376	-147.31699	381.56601	79.64211	-281.59464	400.15744	114.62593	-227.75172	197.14037	149.04979	326.73950	35.71394	142.94614	278.11273	43.74831	134.52679	251.60156	30.22117	274.73618	309.46475	59.80757	268.08591	-296.82614	36.13475	134.45638	-248.16852	46.21938	128.91234	-228.76399	30.16571	270.01602	-287.30048	57.69334	260.88174	-7.20625	914.42926	155.04440	4.61200	306.65332	337.07605	-7.20625	914.42926	155.04440	-80.55191	1002.71185	15.15658	59.44736	1002.95007	15.54199	-10.33646	985.87543	-52.56583	-132.20262	880.54260	68.91605	-268.87891	877.65210	12.72708	-319.65302	954.12329	-40.38706	-292.07697	879.58447	-101.07911	-279.62308	1053.53369	-252.23198	-233.44759	1055.04932	-233.11324	-191.48901	1123.06433	-276.67014	112.75895	878.72681	55.19432	242.52780	873.55890	-16.31830	291.59866	949.89032	-71.20496	251.30135	881.37701	-131.88487	228.50000	1066.04211	-268.41147	185.63103	1068.57507	-242.80220	144.18849	1146.88770	-265.74710	-120.29073	19.71088	-8.30902	-122.55936	18.03387	-4.59831	-94.32618	-4.22430	-1.02615	-96.33326	-0.89507	-1.49027	-24.08881	-5.98230	-20.07405	-26.50958	-6.02262	-20.09437	-22.90030	99.32028	-52.36039	22.30051	-92.14261	-51.40879	-53.78947	-92.14261	42.46819	-52.71920	-0.00000	42.46819	27.26064	8.64802	42.46819	22.54201	9.69746	-0.00000	-0.00000	-1.80502	2.46798
